<svg width="26" height="26" viewBox="0 0 26 26" fill="none" xmlns="http://www.w3.org/2000/svg">
<path d="M20.5263 17.5355C21.6151 17.5355 22.6593 17.9814 23.4292 18.7751C24.1991 19.5688 24.6316 20.6453 24.6316 21.7678C24.6316 22.8902 24.1991 23.9667 23.4292 24.7604C22.6593 25.5541 21.6151 26 20.5263 26C19.6765 26.0025 18.8471 25.7322 18.1531 25.2266C17.4591 24.721 16.9351 24.0052 16.6537 23.1785H15.0526V20.357H16.6537C17.2147 18.7064 18.7337 17.5355 20.5263 17.5355ZM20.5263 20.357C20.1634 20.357 19.8153 20.5056 19.5587 20.7702C19.3021 21.0348 19.1579 21.3936 19.1579 21.7678C19.1579 22.1419 19.3021 22.5007 19.5587 22.7653C19.8153 23.0299 20.1634 23.1785 20.5263 23.1785C20.8892 23.1785 21.2373 23.0299 21.4939 22.7653C21.7506 22.5007 21.8947 22.1419 21.8947 21.7678C21.8947 21.3936 21.7506 21.0348 21.4939 20.7702C21.2373 20.5056 20.8892 20.357 20.5263 20.357ZM20.5263 7.66033C21.0453 7.66033 21.543 7.44779 21.91 7.06946C22.277 6.69113 22.4832 6.17801 22.4832 5.64297C22.4832 5.10793 22.277 4.59481 21.91 4.21648C21.543 3.83815 21.0453 3.62561 20.5263 3.62561C20.0073 3.62561 19.5096 3.83815 19.1426 4.21648C18.7756 4.59481 18.5695 5.10793 18.5695 5.64297C18.5695 6.17801 18.7756 6.69113 19.1426 7.06946C19.5096 7.44779 20.0073 7.66033 20.5263 7.66033ZM20.5263 0C21.978 0 23.3703 0.594525 24.3968 1.65279C25.4233 2.71105 26 4.14636 26 5.64297C26 9.86109 20.5263 16.1248 20.5263 16.1248C20.5263 16.1248 15.0526 9.86109 15.0526 5.64297C15.0526 4.14636 15.6293 2.71105 16.6558 1.65279C17.6824 0.594525 19.0746 0 20.5263 0ZM7.97791 20.357H9.57896V23.1785H7.97791C7.69654 24.0052 7.17249 24.721 6.47851 25.2266C5.78453 25.7322 4.95506 26.0025 4.10528 26C3.01649 26 1.97231 25.5541 1.20242 24.7604C0.432535 23.9667 1.7125e-05 22.8902 1.7125e-05 21.7678C1.7125e-05 19.9197 1.13581 18.3538 2.73686 17.7754V16.1248H5.4737V17.7754C6.63685 18.1986 7.56738 19.1579 7.97791 20.357ZM4.10528 20.357C3.74235 20.357 3.39429 20.5056 3.13766 20.7702C2.88103 21.0348 2.73686 21.3936 2.73686 21.7678C2.73686 22.1419 2.88103 22.5007 3.13766 22.7653C3.39429 23.0299 3.74235 23.1785 4.10528 23.1785C4.46821 23.1785 4.81627 23.0299 5.0729 22.7653C5.32952 22.5007 5.4737 22.1419 5.4737 21.7678C5.4737 21.3936 5.32952 21.0348 5.0729 20.7702C4.81627 20.5056 4.46821 20.357 4.10528 20.357ZM4.10528 0.606619C5.19406 0.606619 6.23825 1.05251 7.00814 1.84621C7.77802 2.63991 8.21054 3.71639 8.21054 4.83885C8.21054 6.68692 7.07475 8.25284 5.4737 8.83125V10.4818H2.73686V8.83125C1.935 8.54118 1.24064 8.00092 0.750199 7.28548C0.259755 6.57003 -0.00244085 5.71491 1.7125e-05 4.83885C1.7125e-05 3.71639 0.432535 2.63991 1.20242 1.84621C1.97231 1.05251 3.01649 0.606619 4.10528 0.606619ZM4.10528 3.4281C3.74235 3.4281 3.39429 3.57674 3.13766 3.8413C2.88103 4.10587 2.73686 4.46469 2.73686 4.83885C2.73686 5.213 2.88103 5.57183 3.13766 5.83639C3.39429 6.10096 3.74235 6.24959 4.10528 6.24959C4.46821 6.24959 4.81627 6.10096 5.0729 5.83639C5.32952 5.57183 5.4737 5.213 5.4737 4.83885C5.4737 4.46469 5.32952 4.10587 5.0729 3.8413C4.81627 3.57674 4.46821 3.4281 4.10528 3.4281ZM10.9474 23.1785V20.357H13.6842V23.1785H10.9474ZM5.4737 14.714H2.73686V11.8926H5.4737V14.714Z" fill="white"/>
</svg>
