<svg width="26" height="26" viewBox="0 0 26 26" fill="none" xmlns="http://www.w3.org/2000/svg">
<mask id="mask0_670_3590" style="mask-type:alpha" maskUnits="userSpaceOnUse" x="0" y="0" width="26" height="26">
<rect width="26" height="26" fill="#D9D9D9"/>
</mask>
<g mask="url(#mask0_670_3590)">
<path d="M1.68984 22.3881C1.12979 22.3881 0.849765 22.3881 0.635853 22.2791C0.447691 22.1833 0.294711 22.0303 0.198837 21.8421C0.0898438 21.6282 0.0898438 21.3482 0.0898438 20.7881V19.102C0.0898438 18.437 0.260995 17.8257 0.603299 17.2683C0.945602 16.7108 1.40038 16.2854 1.96762 15.992C3.18035 15.3856 4.41264 14.9308 5.6645 14.6276C6.91635 14.3244 8.18776 14.1729 9.47873 14.1729C10.7697 14.1729 12.0411 14.3244 13.293 14.6276C14.5448 14.9308 15.7771 15.3856 16.9898 15.992C17.5571 16.2854 18.0119 16.7108 18.3542 17.2683C18.6965 17.8257 18.8676 18.437 18.8676 19.102V20.7881C18.8676 21.3482 18.8676 21.6282 18.7586 21.8421C18.6628 22.0303 18.5098 22.1833 18.3216 22.2791C18.1077 22.3881 17.8277 22.3881 17.2676 22.3881H1.68984ZM21.7315 22.3881C21.1715 22.3881 20.8914 22.3881 20.6775 22.2791C20.4894 22.1833 20.3364 22.0303 20.2405 21.8421C20.1315 21.6282 20.1315 21.3482 20.1315 20.7881V18.8673C20.1315 18.0066 19.8919 17.1802 19.4127 16.388C18.9335 15.5959 18.2537 14.9161 17.3735 14.3489C18.3711 14.4663 19.31 14.6667 20.1902 14.9504C21.0704 15.234 21.8919 15.5812 22.6548 15.992C23.3589 16.3832 23.8968 16.8184 24.2685 17.2976C24.6401 17.7768 24.826 18.3001 24.826 18.8673V20.7881C24.826 21.3482 24.826 21.6282 24.717 21.8421C24.6211 22.0303 24.4681 22.1833 24.2799 22.2791C24.066 22.3881 23.786 22.3881 23.226 22.3881H21.7315ZM9.47873 12.9992C8.18776 12.9992 7.08261 12.5396 6.16328 11.6202C5.24395 10.7009 4.78429 9.59577 4.78429 8.3048C4.78429 7.01382 5.24395 5.90867 6.16328 4.98934C7.08261 4.07002 8.18776 3.61035 9.47873 3.61035C10.7697 3.61035 11.8749 4.07002 12.7942 4.98934C13.7135 5.90867 14.1732 7.01382 14.1732 8.3048C14.1732 9.59577 13.7135 10.7009 12.7942 11.6202C11.8749 12.5396 10.7697 12.9992 9.47873 12.9992ZM20.1315 8.3048C20.1315 9.59577 19.6718 10.7009 18.7525 11.6202C17.8332 12.5396 16.728 12.9992 15.4371 12.9992C15.2219 12.9992 14.9481 12.9748 14.6155 12.9259C14.229 12.869 14.0805 12.4204 14.2957 12.0942C14.5869 11.6527 14.8256 11.1818 15.0116 10.6814C15.2953 9.91851 15.4371 9.12632 15.4371 8.3048C15.4371 7.48327 15.2953 6.69108 15.0116 5.92823C14.8265 5.43023 14.5892 4.9614 14.2999 4.52175C14.0749 4.17994 14.2087 3.69796 14.6155 3.65436C14.8894 3.62502 15.1632 3.61035 15.4371 3.61035C16.728 3.61035 17.8332 4.07002 18.7525 4.98934C19.6718 5.90867 20.1315 7.01382 20.1315 8.3048ZM2.43707 19.102C2.43707 19.6206 2.85742 20.0409 3.37596 20.0409H15.5815C16.1 20.0409 16.5204 19.6206 16.5204 19.102C16.5204 18.8869 16.4666 18.6913 16.359 18.5152C16.2514 18.3392 16.1096 18.2023 15.9336 18.1045C14.8773 17.5763 13.8113 17.1802 12.7355 16.9162C11.6597 16.6521 10.5741 16.5201 9.47873 16.5201C8.38336 16.5201 7.29777 16.6521 6.22196 16.9162C5.14615 17.1802 4.08012 17.5763 3.02387 18.1045C2.84783 18.2023 2.70602 18.3392 2.59844 18.5152C2.49086 18.6913 2.43707 18.8869 2.43707 19.102ZM9.47873 10.652C10.1242 10.652 10.6768 10.4222 11.1365 9.96252C11.5961 9.50286 11.826 8.95028 11.826 8.3048C11.826 7.65931 11.5961 7.10673 11.1365 6.64707C10.6768 6.18741 10.1242 5.95757 9.47873 5.95757C8.83325 5.95757 8.28067 6.18741 7.82101 6.64707C7.36134 7.10673 7.13151 7.65931 7.13151 8.3048C7.13151 8.95028 7.36134 9.50286 7.82101 9.96252C8.28067 10.4222 8.83325 10.652 9.47873 10.652Z" fill="white"/>
</g>
</svg>
