<svg width="26" height="26" viewBox="0 0 26 26" fill="none" xmlns="http://www.w3.org/2000/svg">
<path fill-rule="evenodd" clip-rule="evenodd" d="M17.5337 5.71622C17.9353 5.71853 18.3334 5.64555 18.705 5.50152C19.0765 5.35749 19.4141 5.14526 19.6981 4.87714C19.9821 4.60902 20.207 4.29034 20.3596 3.93957C20.5123 3.58879 20.5897 3.2129 20.5873 2.83368C20.5738 2.07775 20.2462 1.35712 19.6753 0.827073C19.1043 0.297027 18.3357 0 17.535 0C16.7343 0 15.9657 0.297027 15.3948 0.827073C14.8238 1.35712 14.4963 2.07775 14.4827 2.83368C14.4803 3.21272 14.5575 3.58846 14.7099 3.93912C14.8624 4.28978 15.087 4.60839 15.3708 4.8765C15.6545 5.14461 15.9918 5.35688 16.3631 5.50103C16.7344 5.64517 17.1323 5.71831 17.5337 5.71622ZM23.0618 6.15204C21.2753 8.49023 18.914 8.762 16.3789 7.34848C16.0271 7.12877 15.6617 6.92901 15.2847 6.75026C11.1948 4.46593 7.1057 5.33592 4.39779 8.97991C3.24654 10.5028 5.95357 11.971 7.04867 10.4489C8.48774 8.54326 10.2734 8.00055 12.2328 8.5996C11.2536 10.2857 10.3313 11.9138 9.12128 14.2015C7.85332 16.5405 5.14716 18.3898 2.49629 16.9755C2.31856 16.8636 2.119 16.7864 1.90927 16.7483C1.69954 16.7102 1.48387 16.7119 1.27488 16.7535C1.06588 16.7951 0.86777 16.8756 0.692135 16.9903C0.516499 17.1051 0.36687 17.2517 0.252006 17.4218C0.137142 17.5918 0.0593507 17.7817 0.023187 17.9805C-0.0129767 18.1792 -0.00678663 18.3828 0.0413948 18.5793C0.0895763 18.7757 0.178781 18.9612 0.303787 19.1247C0.428793 19.2882 0.587089 19.4265 0.769407 19.5316C2.38555 20.4016 4.27735 20.6989 6.10481 20.37C7.93228 20.041 9.57557 19.1074 10.7394 17.7369C10.7973 17.7369 10.9149 17.7908 10.9693 17.7908C12.6869 18.4652 14.2965 19.3626 15.7515 20.4571C16.4421 20.9998 17.6513 23.7713 18.3427 25.1881C19.265 26.8742 22.0282 25.677 21.1656 23.937C20.3583 22.3627 18.9763 19.2051 17.94 18.3898C16.6905 17.4794 15.382 16.6437 14.022 15.8876C15.0022 14.1476 15.9814 12.4615 17.0177 10.7754C20.3013 11.6992 23.4699 10.6097 25.7162 7.62025C26.8675 6.09819 24.2192 4.62916 23.0671 6.15204H23.0618Z" fill="#B0FF4C"/>
</svg>
