<svg width="78" height="58" viewBox="0 0 78 58" fill="none" xmlns="http://www.w3.org/2000/svg">
<path d="M68.5714 57.7305H8.57143C3.84571 57.7305 0 54.0647 0 49.56V16.8778C0 12.3731 3.84571 8.70728 8.57143 8.70728H17.94L18.8429 6.12267C19.4108 4.49533 20.502 3.07984 21.9616 2.07714C23.4212 1.07444 25.1751 0.535476 26.9743 0.536745H50.1657C53.86 0.536745 57.1286 2.78092 58.2971 6.12267L59.2 8.70728H68.5714C73.2971 8.70728 77.1429 12.3731 77.1429 16.8778V49.56C77.1429 54.0647 73.2971 57.7305 68.5714 57.7305ZM8.57143 14.1543C7.81367 14.1543 7.08694 14.4412 6.55112 14.952C6.01531 15.4628 5.71429 16.1555 5.71429 16.8778V49.56C5.71429 50.2823 6.01531 50.975 6.55112 51.4858C7.08694 51.9965 7.81367 52.2835 8.57143 52.2835H68.5714C69.3292 52.2835 70.0559 51.9965 70.5917 51.4858C71.1276 50.975 71.4286 50.2823 71.4286 49.56V16.8778C71.4286 16.1555 71.1276 15.4628 70.5917 14.952C70.0559 14.4412 69.3292 14.1543 68.5714 14.1543H59.2029C56.74 14.1543 54.56 12.6564 53.7829 10.4285L52.8829 7.84665C52.6929 7.30434 52.3289 6.83267 51.8423 6.49837C51.3558 6.16406 50.7712 5.98404 50.1714 5.98377H26.98C26.3799 5.98281 25.7948 6.16234 25.3079 6.49682C24.8211 6.8313 24.4574 7.30366 24.2686 7.84665L23.36 10.4313C22.982 11.5163 22.2548 12.4601 21.2818 13.1285C20.3087 13.7969 19.1394 14.1559 17.94 14.1543H8.57143Z" fill="#BBBBBB"/>
<path d="M38.5712 47.5174C29.9084 47.5174 22.8569 40.7957 22.8569 32.538C22.8569 24.2803 29.9084 17.5587 38.5712 17.5587C47.2341 17.5587 54.2855 24.2803 54.2855 32.538C54.2855 40.7957 47.2341 47.5174 38.5712 47.5174ZM38.5712 23.0057C33.0569 23.0057 28.5712 27.2817 28.5712 32.538C28.5712 37.7944 33.0569 42.0703 38.5712 42.0703C44.0855 42.0703 48.5712 37.7944 48.5712 32.538C48.5712 27.2817 44.0855 23.0057 38.5712 23.0057Z" fill="#BBBBBB"/>
<path d="M55.7141 22.3248C57.292 22.3248 58.5712 21.1055 58.5712 19.6013C58.5712 18.0972 57.292 16.8778 55.7141 16.8778C54.1361 16.8778 52.8569 18.0972 52.8569 19.6013C52.8569 21.1055 54.1361 22.3248 55.7141 22.3248Z" fill="#BBBBBB"/>
</svg>
