<svg width="20" height="20" viewBox="0 0 20 20" fill="none" xmlns="http://www.w3.org/2000/svg">
<path d="M10 0C11.9778 0 13.9112 0.58649 15.5557 1.6853C17.2002 2.78412 18.4819 4.3459 19.2388 6.17316C19.9957 8.00042 20.1937 10.0111 19.8078 11.9509C19.422 13.8907 18.4696 15.6725 17.0711 17.0711C15.6725 18.4696 13.8907 19.422 11.9509 19.8078C10.0111 20.1937 8.00043 19.9957 6.17316 19.2388C4.3459 18.4819 2.78412 17.2002 1.6853 15.5557C0.586489 13.9112 0 11.9778 0 10C0.00279999 7.34869 1.05727 4.80678 2.93202 2.93202C4.80678 1.05727 7.34869 0.00279983 10 0ZM6.37884 12.5327C6.30737 12.6042 6.25068 12.689 6.212 12.7824C6.17333 12.8758 6.15342 12.9758 6.15342 13.0769C6.15342 13.178 6.17333 13.2781 6.212 13.3715C6.25068 13.4648 6.30737 13.5497 6.37884 13.6212C6.45031 13.6926 6.53516 13.7493 6.62854 13.788C6.72192 13.8267 6.822 13.8466 6.92308 13.8466C7.02415 13.8466 7.12423 13.8267 7.21761 13.788C7.31099 13.7493 7.39584 13.6926 7.46731 13.6212L10 11.0875L12.5327 13.6212C12.6042 13.6926 12.689 13.7493 12.7824 13.788C12.8758 13.8267 12.9758 13.8466 13.0769 13.8466C13.178 13.8466 13.2781 13.8267 13.3715 13.788C13.4648 13.7493 13.5497 13.6926 13.6212 13.6212C13.6926 13.5497 13.7493 13.4648 13.788 13.3715C13.8267 13.2781 13.8466 13.178 13.8466 13.0769C13.8466 12.9758 13.8267 12.8758 13.788 12.7824C13.7493 12.689 13.6926 12.6042 13.6212 12.5327L11.0875 10L13.6212 7.46731C13.7655 7.32297 13.8466 7.1272 13.8466 6.92308C13.8466 6.71895 13.7655 6.52318 13.6212 6.37884C13.4768 6.23451 13.281 6.15342 13.0769 6.15342C12.8728 6.15342 12.677 6.23451 12.5327 6.37884L10 8.9125L7.46731 6.37884C7.39584 6.30737 7.31099 6.25068 7.21761 6.212C7.12423 6.17332 7.02415 6.15342 6.92308 6.15342C6.822 6.15342 6.72192 6.17332 6.62854 6.212C6.53516 6.25068 6.45031 6.30737 6.37884 6.37884C6.30737 6.45031 6.25068 6.53516 6.212 6.62854C6.17333 6.72192 6.15342 6.822 6.15342 6.92308C6.15342 7.02415 6.17333 7.12423 6.212 7.21761C6.25068 7.31099 6.30737 7.39584 6.37884 7.46731L8.9125 10L6.37884 12.5327Z" fill="#6B6B6B"/>
</svg>
