<svg width="84" height="84" viewBox="0 0 84 84" fill="none" xmlns="http://www.w3.org/2000/svg">
<g id="&#236;&#189;&#148;&#236;&#138;&#164; &#235;&#176;&#149;&#236;&#138;&#164; &#236;&#178;&#180;&#237;&#129;&#172; &#237;&#145;&#156;&#236;&#139;&#156;">
<circle id="Ellipse 43" cx="42" cy="42" r="42" fill="#383838"/>
<path id="Vector" d="M55.7823 27.0202C56.4735 26.3586 57.3934 25.9928 58.3477 26.0001C59.302 26.0074 60.2163 26.3871 60.8974 27.0591C61.5786 27.7312 61.9735 28.643 61.9987 29.6022C62.0239 30.5614 61.6776 31.4929 61.0326 32.2002L41.4543 56.8175C41.1176 57.182 40.7113 57.4746 40.2596 57.6777C39.8079 57.8807 39.3201 57.9902 38.8254 57.9994C38.3307 58.0086 37.8392 57.9174 37.3804 57.7313C36.9215 57.5451 36.5047 57.2679 36.1549 56.9161L23.1713 43.8626C22.8097 43.5238 22.5197 43.1154 22.3186 42.6615C22.1174 42.2076 22.0093 41.7177 22.0006 41.2209C21.9919 40.7241 22.0828 40.2306 22.2678 39.7699C22.4529 39.3092 22.7284 38.8907 23.0779 38.5393C23.4274 38.188 23.8436 37.911 24.3019 37.7249C24.7601 37.5388 25.2509 37.4474 25.7451 37.4562C26.2392 37.465 26.7265 37.5737 27.1779 37.7759C27.6294 37.9782 28.0357 38.2697 28.3726 38.6333L38.6476 48.9587L55.6891 27.1288L55.7823 27.0202Z" fill="#B0FF4C"/>
</g>
</svg>
