<svg width="13" height="16" viewBox="0 0 13 16" fill="none" xmlns="http://www.w3.org/2000/svg">
<path id="Vector" fill-rule="evenodd" clip-rule="evenodd" d="M11.8182 1.14286H9.45455C9.45455 0.514286 8.92273 0 8.27273 0H4.72727C4.07727 0 3.54545 0.514286 3.54545 1.14286H1.18182C0.531818 1.14286 0 1.65714 0 2.28571V3.42857C0 4.05714 0.531818 4.57143 1.18182 4.57143V14.8571C1.18182 15.4857 1.71364 16 2.36364 16H10.6364C11.2864 16 11.8182 15.4857 11.8182 14.8571V4.57143C12.4682 4.57143 13 4.05714 13 3.42857V2.28571C13 1.65714 12.4682 1.14286 11.8182 1.14286ZM10.6364 14.8571H2.36364V4.57143H3.54545V13.7143H4.72727V4.57143H5.90909V13.7143H7.09091V4.57143H8.27273V13.7143H9.45455V4.57143H10.6364V14.8571ZM11.8182 3.42857H1.18182V2.28571H11.8182V3.42857Z" fill="white"/>
</svg>
