<svg width="26" height="26" viewBox="0 0 26 26" fill="none" xmlns="http://www.w3.org/2000/svg">
<g id="BTN_crosshair">
<path id="Vector" d="M25.0714 12.0714H24.1034C23.8806 9.44757 22.737 6.98704 20.875 5.12501C19.013 3.26298 16.5524 2.11943 13.9286 1.89661V0.928571C13.9286 0.682299 13.8307 0.446113 13.6566 0.271972C13.4825 0.0978313 13.2463 0 13 0C12.7537 0 12.5175 0.0978313 12.3434 0.271972C12.1693 0.446113 12.0714 0.682299 12.0714 0.928571V1.89661C9.44757 2.11943 6.98704 3.26298 5.12501 5.12501C3.26298 6.98704 2.11943 9.44757 1.89661 12.0714H0.928571C0.682299 12.0714 0.446113 12.1693 0.271972 12.3434C0.0978313 12.5175 0 12.7537 0 13C0 13.2463 0.0978313 13.4825 0.271972 13.6566C0.446113 13.8307 0.682299 13.9286 0.928571 13.9286H1.89661C2.11943 16.5524 3.26298 19.013 5.12501 20.875C6.98704 22.737 9.44757 23.8806 12.0714 24.1034V25.0714C12.0714 25.3177 12.1693 25.5539 12.3434 25.728C12.5175 25.9022 12.7537 26 13 26C13.2463 26 13.4825 25.9022 13.6566 25.728C13.8307 25.5539 13.9286 25.3177 13.9286 25.0714V24.1034C16.5524 23.8806 19.013 22.737 20.875 20.875C22.737 19.013 23.8806 16.5524 24.1034 13.9286H25.0714C25.3177 13.9286 25.5539 13.8307 25.728 13.6566C25.9022 13.4825 26 13.2463 26 13C26 12.7537 25.9022 12.5175 25.728 12.3434C25.5539 12.1693 25.3177 12.0714 25.0714 12.0714ZM21.3571 13.9286H22.2393C22.0219 16.0586 21.0765 18.0485 19.5625 19.5625C18.0485 21.0765 16.0586 22.0219 13.9286 22.2393V21.3571C13.9286 21.1109 13.8307 20.8747 13.6566 20.7005C13.4825 20.5264 13.2463 20.4286 13 20.4286C12.7537 20.4286 12.5175 20.5264 12.3434 20.7005C12.1693 20.8747 12.0714 21.1109 12.0714 21.3571V22.2393C9.94137 22.0219 7.95148 21.0765 6.43748 19.5625C4.92348 18.0485 3.97806 16.0586 3.76071 13.9286H4.64286C4.88913 13.9286 5.12532 13.8307 5.29946 13.6566C5.4736 13.4825 5.57143 13.2463 5.57143 13C5.57143 12.7537 5.4736 12.5175 5.29946 12.3434C5.12532 12.1693 4.88913 12.0714 4.64286 12.0714H3.76071C3.97806 9.94137 4.92348 7.95148 6.43748 6.43748C7.95148 4.92348 9.94137 3.97806 12.0714 3.76071V4.64286C12.0714 4.88913 12.1693 5.12532 12.3434 5.29946C12.5175 5.4736 12.7537 5.57143 13 5.57143C13.2463 5.57143 13.4825 5.4736 13.6566 5.29946C13.8307 5.12532 13.9286 4.88913 13.9286 4.64286V3.76071C16.0586 3.97806 18.0485 4.92348 19.5625 6.43748C21.0765 7.95148 22.0219 9.94137 22.2393 12.0714H21.3571C21.1109 12.0714 20.8747 12.1693 20.7005 12.3434C20.5264 12.5175 20.4286 12.7537 20.4286 13C20.4286 13.2463 20.5264 13.4825 20.7005 13.6566C20.8747 13.8307 21.1109 13.9286 21.3571 13.9286ZM17.6429 13C17.6429 13.9183 17.3706 14.8159 16.8604 15.5794C16.3502 16.3429 15.6251 16.938 14.7767 17.2894C13.9284 17.6408 12.9948 17.7328 12.0942 17.5536C11.1936 17.3745 10.3663 16.9323 9.717 16.283C9.06769 15.6337 8.6255 14.8064 8.44635 13.9058C8.26721 13.0052 8.35915 12.0716 8.71056 11.2233C9.06197 10.3749 9.65705 9.64977 10.4206 9.13961C11.1841 8.62944 12.0817 8.35714 13 8.35714C14.2314 8.35714 15.4123 8.8463 16.283 9.717C17.1537 10.5877 17.6429 11.7686 17.6429 13Z" fill="white"/>
</g>
</svg>
