<svg width="23" height="24" viewBox="0 0 23 24" fill="none" xmlns="http://www.w3.org/2000/svg">
<path d="M8.75403 9.64861L7.37482 14.1956C7.25769 14.5824 7.3647 15.002 7.65355 15.2872C7.86468 15.4959 8.14847 15.6089 8.43878 15.6089C8.54542 15.6089 8.6528 15.5938 8.75764 15.5624L13.3573 14.1992C13.5334 14.147 13.6939 14.0527 13.8237 13.924L22.2566 5.58695C22.4648 5.38108 22.5819 5.10158 22.5819 4.81064C22.5819 4.51971 22.4648 4.24021 22.2566 4.03434L19.0357 0.850483C18.6019 0.421584 17.8991 0.421584 17.4653 0.850483L9.03276 9.18754C8.90261 9.31621 8.80717 9.47419 8.75403 9.64861ZM10.8013 10.5443L18.2505 3.1794L19.9005 4.81064L12.4513 12.1755L10.0949 12.8739L10.8013 10.5443Z" fill="white"/>
<path d="M21.8418 11.1423C21.2283 11.1423 20.7312 11.6341 20.7312 12.2403V19.5602C20.7312 20.5695 19.9008 21.3901 18.8802 21.3901H4.0722C3.05161 21.3901 2.2212 20.5695 2.2212 19.5602V4.92045C2.2212 3.91111 3.05161 3.09049 4.0722 3.09049H11.4762C12.0897 3.09049 12.5868 2.59868 12.5868 1.99251C12.5868 1.38634 12.0897 0.894531 11.4762 0.894531H4.0722C1.82678 0.894531 0 2.7009 0 4.92045V19.5602C0 21.7797 1.82678 23.5861 4.0722 23.5861H18.8802C21.1256 23.5861 22.9524 21.7797 22.9524 19.5602V12.2403C22.9524 11.6341 22.4553 11.1423 21.8418 11.1423Z" fill="white"/>
</svg>
