<svg width="14" height="12" viewBox="0 0 14 12" fill="none" xmlns="http://www.w3.org/2000/svg">
<path d="M12.7236 1.27124C11.9814 0.552234 10.9976 0.113394 9.94976 0.0339898C8.90197 -0.0454141 7.85933 0.239854 7.01018 0.838264C6.11931 0.198025 5.01046 -0.0922897 3.90693 0.0257817C2.8034 0.143853 1.78716 0.66154 1.06285 1.47459C0.338537 2.28765 -0.0400386 3.33567 0.00335764 4.40762C0.0467538 5.47957 0.508898 6.49582 1.29673 7.25173L5.64483 11.4597C6.00894 11.8059 6.49932 12 7.01018 12C7.52104 12 8.01142 11.8059 8.37553 11.4597L12.7236 7.25173C13.5411 6.45699 14 5.382 14 4.26148C14 3.14097 13.5411 2.06598 12.7236 1.27124ZM11.7364 6.31812L7.38827 10.5193C7.3388 10.5676 7.27991 10.6059 7.21501 10.6321C7.15011 10.6582 7.08049 10.6717 7.01018 10.6717C6.93986 10.6717 6.87025 10.6582 6.80535 10.6321C6.74045 10.6059 6.68156 10.5676 6.63208 10.5193L2.28398 6.29783C1.73487 5.75549 1.42739 5.02695 1.42739 4.26825C1.42739 3.50955 1.73487 2.78101 2.28398 2.23867C2.84353 1.70489 3.59819 1.40558 4.38451 1.40558C5.17083 1.40558 5.92549 1.70489 6.48504 2.23867C6.55014 2.30208 6.62758 2.35241 6.7129 2.38676C6.79822 2.4211 6.88974 2.43879 6.98217 2.43879C7.0746 2.43879 7.16612 2.4211 7.25144 2.38676C7.33677 2.35241 7.41421 2.30208 7.4793 2.23867C8.03885 1.70489 8.79351 1.40558 9.57983 1.40558C10.3662 1.40558 11.1208 1.70489 11.6804 2.23867C12.237 2.77391 12.5546 3.49849 12.5651 4.25721C12.5755 5.01593 12.2781 5.74844 11.7364 6.29783V6.31812Z" fill="white"/>
</svg>
