<svg width="16" height="14" viewBox="0 0 16 14" fill="none" xmlns="http://www.w3.org/2000/svg">
<path d="M13.2495 5.24222L6.85714 11.7678V12.4444H1.52381C1.11967 12.4444 0.732083 12.2806 0.446313 11.9888C0.160544 11.6971 0 11.3014 0 10.8889V1.55556C0 0.692222 0.678095 0 1.52381 0H6.09524L7.61905 1.55556H13.7143C14.1184 1.55556 14.506 1.71944 14.7918 2.01117C15.0776 2.30289 15.2381 2.69855 15.2381 3.11111V4.78333C15.04 4.71333 14.8267 4.66667 14.6057 4.66667C14.0952 4.66667 13.6152 4.86889 13.2495 5.24222ZM8.38095 12.4133V14H9.93524L14.6057 9.24L13.0514 7.64556L8.38095 12.4133ZM15.8857 7.36556L14.88 6.33889C14.7276 6.18333 14.4762 6.18333 14.3314 6.33889L13.5848 7.10111L15.139 8.68778L15.8857 7.92556C16.0381 7.77778 16.0381 7.52111 15.8857 7.36556Z" fill="white"/>
</svg>
