<svg width="16" height="14" viewBox="0 0 16 14" fill="none" xmlns="http://www.w3.org/2000/svg">
<path id="Vector" fill-rule="evenodd" clip-rule="evenodd" d="M1.6 0C1.17565 0 0.768687 0.163888 0.468629 0.455612C0.168571 0.747335 0 1.143 0 1.55556V12.4444C0 12.857 0.168571 13.2527 0.468629 13.5444C0.768687 13.8361 1.17565 14 1.6 14H14.4C14.8243 14 15.2313 13.8361 15.5314 13.5444C15.8314 13.2527 16 12.857 16 12.4444V3.5C16 3.08744 15.8314 2.69178 15.5314 2.40006C15.2313 2.10833 14.8243 1.94444 14.4 1.94444H8.384L7.2648 0.583333C7.11492 0.401329 6.92487 0.254409 6.70871 0.153439C6.49255 0.0524679 6.25581 2.90871e-05 6.016 0H1.6ZM5.7376 5.57822C5.88762 5.43241 6.09107 5.3505 6.3032 5.3505C6.51533 5.3505 6.71878 5.43241 6.8688 5.57822L8 6.678L9.1312 5.57822C9.205 5.50394 9.29327 5.44468 9.39088 5.40392C9.48848 5.36316 9.59346 5.3417 9.69968 5.34081C9.8059 5.33991 9.91125 5.35959 10.0096 5.39869C10.1079 5.4378 10.1972 5.49555 10.2723 5.56858C10.3474 5.64161 10.4068 5.72845 10.4471 5.82404C10.4873 5.91962 10.5075 6.02204 10.5066 6.12531C10.5057 6.22859 10.4836 6.33064 10.4417 6.42554C10.3998 6.52043 10.3388 6.60625 10.2624 6.678L9.1312 7.77778L10.2624 8.87755C10.4081 9.02425 10.4888 9.22071 10.4869 9.42465C10.4851 9.62858 10.401 9.82365 10.2527 9.96786C10.1043 10.1121 9.90368 10.1939 9.69392 10.1956C9.48416 10.1974 9.28208 10.119 9.1312 9.97733L8 8.87755L6.8688 9.97733C6.795 10.0516 6.70673 10.1109 6.60912 10.1516C6.51152 10.1924 6.40654 10.2139 6.30032 10.2148C6.1941 10.2156 6.08875 10.196 5.99044 10.1569C5.89212 10.1178 5.8028 10.06 5.72768 9.98697C5.65257 9.91395 5.59317 9.82711 5.55294 9.73152C5.51272 9.63593 5.49248 9.53352 5.4934 9.43024C5.49432 9.32697 5.51639 9.22491 5.55832 9.13002C5.60025 9.03513 5.66119 8.9493 5.7376 8.87755L6.8688 7.77778L5.7376 6.678C5.58762 6.53215 5.50337 6.33435 5.50337 6.12811C5.50337 5.92187 5.58762 5.72408 5.7376 5.57822Z" fill="white"/>
</svg>
