<svg width="24" height="21" viewBox="0 0 24 21" fill="none" xmlns="http://www.w3.org/2000/svg">
<path fill-rule="evenodd" clip-rule="evenodd" d="M2.4 0C1.76348 0 1.15303 0.237728 0.702944 0.660887C0.252856 1.08405 0 1.65797 0 2.25641V18.0513C0 18.6497 0.252856 19.2236 0.702944 19.6468C1.15303 20.07 1.76348 20.3077 2.4 20.3077H21.6C22.2365 20.3077 22.847 20.07 23.2971 19.6468C23.7471 19.2236 24 18.6497 24 18.0513V5.07692C24 4.47849 23.7471 3.90456 23.2971 3.4814C22.847 3.05824 22.2365 2.82051 21.6 2.82051H12.576L10.8972 0.846154C10.6724 0.582148 10.3873 0.369033 10.0631 0.22257C9.73883 0.0761072 9.38372 4.21923e-05 9.024 0H2.4ZM8.6064 8.09149C8.83143 7.87998 9.1366 7.76116 9.4548 7.76116C9.773 7.76116 10.0782 7.87998 10.3032 8.09149L12 9.68677L13.6968 8.09149C13.8075 7.98373 13.9399 7.89778 14.0863 7.83866C14.2327 7.77953 14.3902 7.7484 14.5495 7.7471C14.7089 7.7458 14.8669 7.77435 15.0143 7.83107C15.1618 7.8878 15.2958 7.97157 15.4085 8.0775C15.5211 8.18343 15.6102 8.3094 15.6706 8.44805C15.7309 8.5867 15.7613 8.73527 15.7599 8.88507C15.7585 9.03487 15.7254 9.18291 15.6625 9.32056C15.5996 9.45821 15.5082 9.5827 15.3936 9.68677L13.6968 11.2821L15.3936 12.8773C15.6122 13.0901 15.7331 13.3751 15.7304 13.6709C15.7277 13.9667 15.6015 14.2497 15.379 14.4589C15.1565 14.6681 14.8555 14.7867 14.5409 14.7893C14.2262 14.7918 13.9231 14.6781 13.6968 14.4726L12 12.8773L10.3032 14.4726C10.1925 14.5804 10.0601 14.6663 9.91368 14.7254C9.76728 14.7846 9.60982 14.8157 9.45048 14.817C9.29115 14.8183 9.13313 14.7898 8.98565 14.733C8.83818 14.6763 8.7042 14.5925 8.59153 14.4866C8.47885 14.3807 8.38975 14.2547 8.32941 14.1161C8.26908 13.9774 8.23871 13.8288 8.2401 13.679C8.24148 13.5292 8.27459 13.3812 8.33748 13.2435C8.40037 13.1059 8.49179 12.9814 8.6064 12.8773L10.3032 11.2821L8.6064 9.68677C8.38143 9.4752 8.25506 9.18829 8.25506 8.88913C8.25506 8.58997 8.38143 8.30306 8.6064 8.09149Z" fill="#B0FF4C"/>
</svg>
