<svg width="44" height="45" viewBox="0 0 44 45" fill="none" xmlns="http://www.w3.org/2000/svg">
<g id="BTN_&#236;&#131;&#129;&#236;&#132;&#184;&#235;&#179;&#180;&#234;&#184;&#176; &#236;&#155;&#144;&#237;&#152;&#149;">
<ellipse id="Ellipse 29" cx="22" cy="22.2305" rx="22" ry="22" fill="#B0FF4C"/>
<path id="Vector 93" d="M12 21.2305C11.4477 21.2305 11 21.6782 11 22.2305C11 22.7828 11.4477 23.2305 12 23.2305L12 21.2305ZM32.7071 22.9376C33.0976 22.5471 33.0976 21.9139 32.7071 21.5234L26.3431 15.1594C25.9526 14.7689 25.3195 14.7689 24.9289 15.1594C24.5384 15.5499 24.5384 16.1831 24.9289 16.5736L30.5858 22.2305L24.9289 27.8873C24.5384 28.2778 24.5384 28.911 24.9289 29.3015C25.3195 29.6921 25.9526 29.6921 26.3431 29.3015L32.7071 22.9376ZM12 23.2305L32 23.2305L32 21.2305L12 21.2305L12 23.2305Z" fill="black"/>
</g>
</svg>
