<svg width="23" height="24" viewBox="0 0 23 24" fill="none" xmlns="http://www.w3.org/2000/svg">
<path id="Vector" d="M1.83635 8.04068C3.94856 3.12552 7.34624 -0.613524 9.06508 0.0838791C11.984 1.272 7.32623 6.9699 21.6623 12.7958C22.9011 13.3012 23.2145 15.3134 22.6958 16.5189C22.1784 17.7216 20.4849 18.9204 19.2461 18.4177C19.0314 18.3297 18.2447 18.0764 18.2447 18.0764C17.3606 19.2645 16.4351 18.5604 16.1058 19.3138L14.5616 22.8608C14.2696 23.5302 13.6082 24.1503 13.1281 23.9676L10.3945 22.9288C9.77048 22.6915 9.62246 22.1341 9.81315 21.6967C10.0185 21.2233 10.8613 21.0847 11.1026 20.5326C11.3426 19.9832 12.128 18.215 12.3534 17.6576C12.6601 16.9002 12.008 16.2828 11.0599 16.1855C4.53395 15.5028 3.31383 19.5352 1.09228 18.6311C-0.623896 17.931 -0.274527 12.9518 1.83635 8.04068ZM2.57109 16.0095C2.95379 16.1628 5.52205 14.14 7.16222 10.3196C8.80372 6.50186 8.59703 3.01217 8.21566 2.85616C7.83429 2.70281 5.3287 5.14572 3.68854 8.96344C2.04704 12.7812 2.18972 15.8535 2.57109 16.0095Z" fill="#B0FF4C"/>
</svg>
