<svg width="6" height="24" viewBox="0 0 6 24" fill="none" xmlns="http://www.w3.org/2000/svg">
<path d="M2.66667 5.33333C3.19408 5.33333 3.70966 5.17694 4.14819 4.88392C4.58672 4.5909 4.92851 4.17443 5.13035 3.68716C5.33218 3.19989 5.38499 2.66371 5.28209 2.14643C5.1792 1.62914 4.92523 1.15399 4.55229 0.781049C4.17935 0.408109 3.70419 0.154134 3.18691 0.0512404C2.66963 -0.0516535 2.13345 0.00115542 1.64618 0.202989C1.15891 0.404823 0.742433 0.746616 0.449416 1.18515C0.156399 1.62368 1.43705e-06 2.13925 1.43705e-06 2.66667C1.43705e-06 3.37391 0.280953 4.05219 0.78105 4.55229C1.28115 5.05238 1.95942 5.33333 2.66667 5.33333ZM2.66667 18.6667C2.13925 18.6667 1.62368 18.8231 1.18515 19.1161C0.746617 19.4091 0.404823 19.8256 0.202989 20.3128C0.00115542 20.8001 -0.0516535 21.3363 0.0512404 21.8536C0.154134 22.3709 0.40811 22.846 0.78105 23.2189C1.15399 23.5919 1.62914 23.8459 2.14643 23.9488C2.66371 24.0517 3.19989 23.9988 3.68716 23.797C4.17443 23.5952 4.5909 23.2534 4.88392 22.8149C5.17694 22.3763 5.33333 21.8607 5.33333 21.3333C5.33333 20.6261 5.05238 19.9478 4.55229 19.4477C4.05219 18.9476 3.37391 18.6667 2.66667 18.6667ZM2.66667 9.33333C2.13925 9.33333 1.62368 9.48973 1.18515 9.78275C0.746617 10.0758 0.404823 10.4922 0.202989 10.9795C0.00115542 11.4668 -0.0516535 12.003 0.0512404 12.5202C0.154134 13.0375 0.40811 13.5127 0.78105 13.8856C1.15399 14.2586 1.62914 14.5125 2.14643 14.6154C2.66371 14.7183 3.19989 14.6655 3.68716 14.4637C4.17443 14.2618 4.5909 13.9201 4.88392 13.4815C5.17694 13.043 5.33333 12.5274 5.33333 12C5.33333 11.2928 5.05238 10.6145 4.55229 10.1144C4.05219 9.61429 3.37391 9.33333 2.66667 9.33333Z" fill="white"/>
</svg>
