<svg width="20" height="24" viewBox="0 0 20 24" fill="none" xmlns="http://www.w3.org/2000/svg">
<g id="&#235;&#139;&#172;&#235;&#166;&#188; &#236;&#149;&#132;&#236;&#157;&#180;&#236;&#189;&#152;">
<path id="Vector" d="M13.7678 5.39569C14.5312 5.39569 15.2633 5.11146 15.8031 4.60551C16.3428 4.09957 16.6461 3.41336 16.6461 2.69785C16.6461 1.98233 16.3428 1.29613 15.8031 0.790181C15.2633 0.284237 14.5312 0 13.7678 0C13.0044 0 12.2723 0.284237 11.7325 0.790181C11.1927 1.29613 10.8895 1.98233 10.8895 2.69785C10.8895 3.41336 11.1927 4.09957 11.7325 4.60551C12.2723 5.11146 13.0044 5.39569 13.7678 5.39569ZM7.9856 7.96285C7.18798 8.1487 6.64367 8.42807 6.20424 8.7746C5.54543 9.29498 5.01327 10.0456 4.29433 11.2254C4.12596 11.5016 3.84747 11.7037 3.52012 11.7873C3.19277 11.871 2.84338 11.8293 2.5488 11.6715C2.25422 11.5137 2.03859 11.2526 1.94935 10.9458C1.8601 10.639 1.90455 10.3115 2.07292 10.0354C2.78866 8.86213 3.51207 7.7644 4.55658 6.94066C5.64649 6.07975 6.98075 5.59294 8.78001 5.40529C9.5322 5.32735 10.3599 5.34294 11.1357 5.66728C11.95 6.00841 12.5448 6.61932 12.9503 7.43587C13.4966 8.53479 13.9027 9.18887 14.2277 9.56836C14.3844 9.75002 14.4938 9.83455 14.5558 9.87232C14.6051 9.9023 14.6262 9.9047 14.6338 9.9059C14.6895 9.91189 14.8705 9.9059 15.4001 9.68587C15.631 9.58995 15.883 9.47484 16.1913 9.33395L16.2649 9.30038C16.6419 9.12602 17.0224 8.95812 17.406 8.79678C17.7157 8.66934 18.0666 8.66206 18.3821 8.77652C18.6975 8.89098 18.9517 9.11787 19.0891 9.40757C19.2265 9.69726 19.2359 10.0262 19.1153 10.3224C18.9947 10.6185 18.7538 10.8579 18.4454 10.988C18.0899 11.1375 17.7374 11.2932 17.3881 11.4551L17.3043 11.4934C17.0094 11.6283 16.7126 11.7644 16.4344 11.8795C15.8587 12.1181 15.1231 12.3771 14.3255 12.2866C13.4838 12.1907 12.8352 11.7452 12.3011 11.1475L10.553 14.3088L12.9708 17.2572C13.1147 17.4335 13.2036 17.6433 13.2286 17.8639L13.7608 22.6577C13.781 22.8157 13.7676 22.9758 13.7212 23.1288C13.6748 23.2818 13.5963 23.4247 13.4904 23.549C13.3846 23.6733 13.2533 23.7767 13.1044 23.853C12.9555 23.9293 12.7919 23.9771 12.6231 23.9936C12.4543 24.01 12.2837 23.9948 12.1212 23.9489C11.9587 23.9029 11.8076 23.8272 11.6767 23.7259C11.5457 23.6247 11.4376 23.5001 11.3586 23.3593C11.2795 23.2185 11.2312 23.0644 11.2163 22.9059L10.7213 18.4497L9.25269 16.6583L9.2399 16.6805L9.18617 16.5774L6.47289 13.268C6.33951 13.1054 6.25288 12.9133 6.2213 12.7103C6.18972 12.5073 6.21424 12.3001 6.29251 12.1085L7.9856 7.96285Z" fill="#B0FF4C"/>
<path id="Vector_2" d="M6.04887 14.9932L5.10735 17.3673L1.39753 17.0915C1.22887 17.0768 1.05877 17.0937 0.897108 17.1411C0.735449 17.1885 0.58545 17.2656 0.455815 17.3678C0.32618 17.47 0.219491 17.5953 0.141939 17.7364C0.0643875 17.8776 0.0175177 18.0318 0.00404978 18.1901C-0.00941813 18.3483 0.0107839 18.5075 0.0634838 18.6584C0.116184 18.8093 0.200331 18.9489 0.311044 19.0691C0.421757 19.1892 0.55683 19.2876 0.708424 19.3584C0.860018 19.4293 1.02512 19.4712 1.19413 19.4818L5.8685 19.8295C6.14591 19.8502 6.42296 19.7855 6.65762 19.6453C6.89229 19.5051 7.07177 19.297 7.16885 19.0525L7.88843 17.2372L6.04887 14.9932Z" fill="#B0FF4C"/>
</g>
</svg>
