<svg width="24" height="24" viewBox="0 0 24 24" fill="none" xmlns="http://www.w3.org/2000/svg">
<g id="Group 264">
<circle id="Ellipse 48" cx="12" cy="12" r="12" fill="#383838"/>
<path id="Vector" d="M7.60053 14.1548C8.3986 14.9537 9.46136 15.4334 10.5886 15.5033C11.7159 15.5732 12.8298 15.2287 13.7206 14.5345L16.7855 17.5985C16.8942 17.7035 17.0398 17.7615 17.1909 17.7602C17.342 17.7589 17.4865 17.6983 17.5934 17.5915C17.7002 17.4847 17.7609 17.3401 17.7622 17.1891C17.7635 17.038 17.7054 16.8925 17.6004 16.7838L14.5355 13.7198C15.2607 12.7894 15.6035 11.6175 15.4941 10.443C15.3847 9.26861 14.8313 8.18013 13.9468 7.39959C13.0622 6.61905 11.9131 6.20524 10.7338 6.24256C9.55457 6.27987 8.43395 6.7655 7.60053 7.6004C7.1699 8.03069 6.82829 8.54159 6.59522 9.1039C6.36215 9.66621 6.24219 10.2689 6.24219 10.8776C6.24219 11.4863 6.36215 12.089 6.59522 12.6513C6.82829 13.2136 7.1699 13.7245 7.60053 14.1548ZM8.41546 8.41625C8.9852 7.84668 9.73486 7.49222 10.5367 7.41326C11.3386 7.33431 12.143 7.53573 12.8129 7.98322C13.4829 8.43071 13.9769 9.09657 14.2108 9.86737C14.4448 10.6382 14.4041 11.4662 14.0958 12.2104C13.7876 12.9546 13.2307 13.5689 12.5201 13.9487C11.8096 14.3285 10.9893 14.4502 10.199 14.2931C9.40877 14.1361 8.69743 13.71 8.1862 13.0874C7.67497 12.4648 7.39548 11.6842 7.39536 10.8788C7.39378 10.421 7.48314 9.96756 7.65825 9.54464C7.83336 9.12172 8.09075 8.73778 8.41546 8.41509V8.41625Z" fill="#B0FF4C"/>
</g>
</svg>
