<svg width="25" height="23" viewBox="0 0 25 23" fill="none" xmlns="http://www.w3.org/2000/svg">
<path fill-rule="evenodd" clip-rule="evenodd" d="M12.6194 6.23071C9.78142 6.23071 7.47656 8.53557 7.47656 11.3736C7.47656 14.2116 9.78142 16.5164 12.6194 16.5164C15.4574 16.5164 17.7623 14.2116 17.7623 11.3736C17.7623 8.53557 15.4574 6.23071 12.6194 6.23071ZM12.6194 7.945C14.512 7.945 16.048 9.481 16.048 11.3736C16.048 13.2661 14.512 14.8021 12.6194 14.8021C10.7268 14.8021 9.19085 13.2661 9.19085 11.3736C9.19085 9.481 10.7268 7.945 12.6194 7.945Z" fill="white"/>
<path fill-rule="evenodd" clip-rule="evenodd" d="M13.6871 2.22434C13.3366 2.1832 12.98 2.16263 12.6191 2.16263C12.2583 2.16263 11.9017 2.1832 11.5511 2.22434L11.0094 1.28577C10.2997 0.0566253 8.72771 -0.365089 7.49771 0.344625L5.62657 1.42463C5.03514 1.76577 4.604 2.3272 4.42743 2.98634C4.25085 3.64548 4.34343 4.34748 4.68457 4.93805L5.22714 5.87663C4.80286 6.44491 4.44371 7.06377 4.15828 7.72291H3.19057C1.77028 7.72291 0.619141 8.87405 0.619141 10.2943V12.4526C0.619141 13.8729 1.77028 15.0241 3.19057 15.0241H4.15828C4.44371 15.6832 4.80286 16.3021 5.22714 16.8703L4.68457 17.8089C4.34343 18.3995 4.25085 19.1015 4.42743 19.7606C4.604 20.4198 5.03514 20.9812 5.62657 21.3223L7.49771 22.4023C8.72771 23.1121 10.2997 22.6903 11.0094 21.4612L11.552 20.5226C11.9017 20.5638 12.2583 20.5843 12.6191 20.5843C12.98 20.5843 13.3366 20.5638 13.6871 20.5226L14.2289 21.4612C14.9386 22.6903 16.5106 23.1121 17.7406 22.4023L19.6117 21.3223C20.2031 20.9812 20.6343 20.4198 20.8109 19.7606C20.9874 19.1015 20.8949 18.3995 20.5537 17.8089L20.0111 16.8703C20.4354 16.3021 20.7946 15.6832 21.08 15.0241H22.0477C23.468 15.0241 24.6191 13.8729 24.6191 12.4526V10.2943C24.6191 8.87405 23.468 7.72291 22.0477 7.72291H21.08C20.7946 7.06377 20.4354 6.44491 20.0111 5.87663L20.5537 4.93805C20.8949 4.34748 20.9874 3.64548 20.8109 2.98634C20.6343 2.3272 20.2031 1.76577 19.6117 1.42463L17.7406 0.344625C16.5106 -0.365089 14.9386 0.0566253 14.2289 1.28577L13.6871 2.22434ZM13.982 4.00034C14.3386 4.06634 14.6977 3.90005 14.8794 3.58634L15.7126 2.14291C15.95 1.7332 16.4737 1.59263 16.8834 1.8292L18.7554 2.91005C18.9517 3.0232 19.0957 3.21091 19.1549 3.43034C19.2131 3.64977 19.1823 3.88377 19.0691 4.08091L18.2343 5.5252C18.0526 5.83977 18.0894 6.23405 18.3251 6.51091C18.9131 7.1992 19.3794 7.99634 19.6889 8.86634C19.8106 9.20834 20.1337 9.4372 20.4963 9.4372H22.0477C22.5209 9.4372 22.9049 9.82034 22.9049 10.2935C22.9049 10.2943 22.9049 12.4526 22.9049 12.4526C22.9049 12.9266 22.5209 13.3098 22.0477 13.3098H20.4963C20.1337 13.3098 19.8106 13.5386 19.6889 13.8806C19.3794 14.7506 18.9131 15.5478 18.3251 16.2361C18.0894 16.5129 18.0526 16.9072 18.2343 17.2218L19.0691 18.6661C19.1823 18.8632 19.2131 19.0972 19.1549 19.3166C19.0957 19.5361 18.9517 19.7238 18.7554 19.8369L16.8834 20.9178C16.4737 21.1543 15.95 21.0138 15.7126 20.6041L14.8794 19.1606C14.6977 18.8469 14.3386 18.6806 13.982 18.7466C13.5406 18.8272 13.0846 18.8701 12.6191 18.8701C12.1537 18.8701 11.6977 18.8272 11.2563 18.7466C10.8997 18.6806 10.5406 18.8469 10.3589 19.1606L9.52571 20.6041C9.28828 21.0138 8.76457 21.1543 8.35485 20.9178L6.48285 19.8369C6.28657 19.7238 6.14257 19.5361 6.08343 19.3166C6.02514 19.0972 6.056 18.8632 6.16914 18.6661L7.004 17.2218C7.18571 16.9072 7.14886 16.5129 6.91314 16.2361C6.32514 15.5478 5.85885 14.7506 5.54943 13.8806C5.42771 13.5386 5.10457 13.3098 4.742 13.3098H3.19057C2.71743 13.3098 2.33343 12.9266 2.33343 12.4535C2.33343 12.4526 2.33343 10.2943 2.33343 10.2943C2.33343 9.82034 2.71743 9.4372 3.19057 9.4372H4.742C5.10457 9.4372 5.42771 9.20834 5.54943 8.86634C5.85885 7.99634 6.32514 7.1992 6.91314 6.51091C7.14886 6.23405 7.18571 5.83977 7.004 5.5252L6.16914 4.08091C6.056 3.88377 6.02514 3.64977 6.08343 3.43034C6.14257 3.21091 6.28657 3.0232 6.48285 2.91005L8.35485 1.8292C8.76457 1.59263 9.28828 1.7332 9.52571 2.14291L10.3589 3.58634C10.5406 3.90005 10.8997 4.06634 11.2563 4.00034C11.6977 3.91977 12.1537 3.87691 12.6191 3.87691C13.0846 3.87691 13.5406 3.91977 13.982 4.00034Z" fill="white"/>
</svg>
