<svg width="26" height="26" viewBox="0 0 26 26" fill="none" xmlns="http://www.w3.org/2000/svg">
<g id="Group 208">
<path id="Vector" d="M13 26C20.1797 26 26 20.1797 26 13C26 5.8203 20.1797 0 13 0C5.8203 0 0 5.8203 0 13C0 20.1797 5.8203 26 13 26Z" fill="#8E8E8E"/>
<path id="Vector_2" fill-rule="evenodd" clip-rule="evenodd" d="M13.0001 11.7305C15.0823 11.7305 16.7701 10.026 16.7701 7.92335C16.7701 5.82073 15.0823 4.11621 13.0001 4.11621C10.918 4.11621 9.23013 5.82073 9.23013 7.92335C9.23013 10.026 10.918 11.7305 13.0001 11.7305ZM10.4868 14.2686C8.40469 14.2686 6.7168 15.9731 6.7168 18.0757C6.7168 20.1784 8.40469 21.8829 10.4868 21.8829H15.5135C17.5956 21.8829 19.2835 20.1784 19.2835 18.0757C19.2835 15.9731 17.5956 14.2686 15.5135 14.2686H10.4868Z" fill="white"/>
</g>
</svg>
